<svg width="40.000000" height="40.000000" viewBox="0 0 40 40" fill="none" xmlns="http://www.w3.org/2000/svg" xmlns:xlink="http://www.w3.org/1999/xlink">
	<desc>
			Created with Pixso.
	</desc>
	<defs>
		<clipPath id="clip110_23325">
			<rect id="gift" rx="0.000000" width="39.000000" height="39.000000" transform="translate(0.500000 0.500000)" fill="white" fill-opacity="0"/>
		</clipPath>
	</defs>
	<rect id="gift" rx="0.000000" width="39.000000" height="39.000000" transform="translate(0.500000 0.500000)" fill="#FFFFFF" fill-opacity="0"/>
	<g clip-path="url(#clip110_23325)">
		<path id="Icon" d="M20 10L20 36.66M20 10C20 10 21.3 3.33 25.89 3.33C26.76 3.33 27.59 3.68 28.2 4.3C28.82 4.93 29.16 5.78 29.16 6.66C29.16 7.55 28.82 8.39 28.2 9.02C27.59 9.64 26.76 10 25.89 10L20 10L14.1 10C13.23 10 12.4 9.64 11.79 9.02C11.17 8.39 10.83 7.55 10.83 6.66C10.83 5.78 11.17 4.93 11.79 4.3C12.4 3.68 13.23 3.33 14.1 3.33C18.69 3.33 20 10 20 10M36.66 15.66C36.66 16.59 36.66 17.06 36.48 17.42C36.32 17.73 36.07 17.99 35.75 18.15C35.4 18.33 34.93 18.33 34 18.33L6 18.33C5.06 18.33 4.59 18.33 4.24 18.15C3.92 17.99 3.67 17.73 3.51 17.42C3.33 17.06 3.33 16.59 3.33 15.66L3.33 12.66C3.33 11.73 3.33 11.26 3.51 10.91C3.67 10.59 3.92 10.34 4.24 10.18C4.59 10 5.06 10 6 10L34 10C34.93 10 35.4 10 35.75 10.18C36.07 10.34 36.32 10.59 36.48 10.91C36.66 11.26 36.66 11.73 36.66 12.66L36.66 15.66ZM33.33 18.33L33.33 31.33C33.33 33.2 33.33 34.13 32.97 34.84C32.65 35.47 32.14 35.98 31.51 36.3C30.8 36.66 29.86 36.66 28 36.66L12 36.66C10.13 36.66 9.19 36.66 8.48 36.3C7.85 35.98 7.34 35.47 7.03 34.84C6.66 34.13 6.66 33.2 6.66 31.33L6.66 18.33" stroke="#43A548" stroke-opacity="1.000000" stroke-width="3.000000" stroke-linejoin="round" stroke-linecap="round"/>
	</g>
</svg>
